<svg width="40" height="40" viewBox="0 0 40 40" fill="none" xmlns="http://www.w3.org/2000/svg">
<g transform="translate(4,36) scale(0.1,-0.1)" fill="#000000" stroke="none">
<path d="M87 282 c-38 -41 -3 -116 42 -92 29 15 30 85 2 100 -25 13 -25 13-44 -8z"/>
<path d="M188 289 c-27 -15 -25 -85 3 -99 46 -25 81 57 41 93 -21 20 -21 20-44 6z"/>
<path d="M4 185 c-8 -31 12 -57 40 -53 13 2 22 12 24 26 7 49 -52 74 -64 27z"/>
<path d="M260 196 c-18 -22 -9 -60 16 -64 28 -4 48 22 40 53 -7 28 -36 34-56 11z"/>
<path d="M119 165 c-48 -26 -81 -102 -56 -127 19 -19 186 -16 198 3 18 30 -16 101 -62 125 -34 17 -47 17 -80 -1z"/>
</g>
</svg>
